{
  "accessors": [
    {
      "bufferView": 2,
      "componentType": 5126,
      "count": 19580,
      "max": [
        0.15486444532871246,
        0.1692289561033249,
        0.15000000596046448
      ],
      "min": [
        -0.15486444532871246,
        -0.14521974325180054,
        -0.14058320224285126
      ],
      "type": "VEC3",
      "byteOffset": 0
    },
    {
      "bufferView": 2,
      "byteOffset": 234960,
      "componentType": 5126,
      "count": 19580,
      "max": [
        1,
        1,
        1
      ],
      "min": [
        -1,
        -1,
        -1
      ],
      "type": "VEC3"
    },
    {
      "bufferView": 1,
      "componentType": 5126,
      "count": 19580,
      "max": [
        0.99831223487854,
        0.99787837266922
      ],
      "min": [
        0.0036735795438289642,
        0.003480488434433937
      ],
      "type": "VEC2",
      "byteOffset": 0
    },
    {
      "bufferView": 1,
      "byteOffset": 156640,
      "componentType": 5126,
      "count": 19580,
      "max": [
        0.99831223487854,
        0.99787837266922
      ],
      "min": [
        0.0036735795438289642,
        0.003480488434433937
      ],
      "type": "VEC2"
    },
    {
      "bufferView": 0,
      "componentType": 5125,
      "count": 85908,
      "type": "SCALAR",
      "byteOffset": 0
    },
    {
      "bufferView": 3,
      "componentType": 5126,
      "count": 160,
      "max": [
        3.3333332538604736
      ],
      "min": [
        0
      ],
      "type": "SCALAR",
      "byteOffset": 0
    },
    {
      "bufferView": 4,
      "componentType": 5126,
      "count": 160,
      "max": [
        0,
        1.9963126182556152,
        0
      ],
      "min": [
        0,
        0,
        0
      ],
      "type": "VEC3",
      "byteOffset": 0
    }
  ],
  "animations": [
    {
      "channels": [
        {
          "sampler": 0,
          "target": {
            "node": 4,
            "path": "translation"
          }
        }
      ],
      "name": "sphere body|sphere bodyAction",
      "samplers": [
        {
          "input": 5,
          "interpolation": "LINEAR",
          "output": 6
        }
      ]
    }
  ],
  "asset": {
    "extras": {
      "author": "mikeramos (https://sketchfab.com/mikeramos)",
      "license": "CC-BY-4.0 (http://creativecommons.org/licenses/by/4.0/)",
      "source": "https://sketchfab.com/3d-models/360-sphere-robot-no-glass-c5b68cef43064a0c8840fadf9e6e5ded",
      "title": "360 Sphere Robot no glass"
    },
    "generator": "Sketchfab-12.67.0",
    "version": "2.0"
  },
  "bufferViews": [
    {
      "buffer": 0,
      "byteLength": 343632,
      "name": "floatBufferViews",
      "target": 34963,
      "byteOffset": 0
    },
    {
      "buffer": 0,
      "byteLength": 313280,
      "byteOffset": 343632,
      "byteStride": 8,
      "name": "floatBufferViews",
      "target": 34962
    },
    {
      "buffer": 0,
      "byteLength": 469920,
      "byteOffset": 656912,
      "byteStride": 12,
      "name": "floatBufferViews",
      "target": 34962
    },
    {
      "buffer": 0,
      "byteLength": 640,
      "byteOffset": 1126832,
      "name": "floatBufferViews"
    },
    {
      "buffer": 0,
      "byteLength": 1920,
      "byteOffset": 1127472,
      "byteStride": 12,
      "name": "floatBufferViews"
    },
    {
      "buffer": 0,
      "byteOffset": 1129392,
      "byteLength": 53015
    },
    {
      "buffer": 0,
      "byteOffset": 1182408,
      "byteLength": 11740
    },
    {
      "buffer": 0,
      "byteOffset": 1194152,
      "byteLength": 4802
    }
  ],
  "buffers": [
    {
      "name": "robot",
      "byteLength": 1198960,
      "uri": "data:application/octet-stream;base64,"
    }
  ],
  "images": [
    {
      "name": "sphere_color_baseColor",
      "bufferView": 5,
      "mimeType": "image/png"
    },
    {
      "name": "sphere_color_metallicRoughness",
      "bufferView": 6,
      "mimeType": "image/png"
    },
    {
      "name": "sphere_color_emissive",
      "bufferView": 7,
      "mimeType": "image/png"
    }
  ],
  "materials": [
    {
      "emissiveFactor": [
        1,
        1,
        1
      ],
      "emissiveTexture": {
        "index": 2,
        "texCoord": 0
      },
      "name": "sphere_color",
      "pbrMetallicRoughness": {
        "baseColorTexture": {
          "index": 0,
          "texCoord": 0
        },
        "metallicRoughnessTexture": {
          "index": 1,
          "texCoord": 0
        },
        "roughnessFactor": 0.15979455094881104,
        "baseColorFactor": [
          1,
          1,
          1,
          1
        ],
        "metallicFactor": 1
      },
      "alphaMode": "OPAQUE",
      "doubleSided": false
    }
  ],
  "meshes": [
    {
      "name": "sphere body_sphere_color_0",
      "primitives": [
        {
          "attributes": {
            "NORMAL": 1,
            "POSITION": 0,
            "TEXCOORD_0": 2,
            "TEXCOORD_1": 3
          },
          "indices": 4,
          "material": 0,
          "mode": 4
        }
      ]
    }
  ],
  "nodes": [
    {
      "children": [
        1
      ],
      "matrix": [
        0.011586906388401985,
        0,
        0,
        0,
        0,
        2.57281005131604e-18,
        -0.011586906388401985,
        0,
        0,
        0.011586906388401985,
        2.57281005131604e-18,
        0,
        0,
        0,
        0,
        1
      ],
      "name": "Sketchfab_model"
    },
    {
      "children": [
        2
      ],
      "matrix": [
        1,
        0,
        0,
        0,
        0,
        0,
        1,
        0,
        0,
        -1,
        0,
        0,
        0,
        0,
        0,
        1
      ],
      "name": "900c78215d8943b3939e71d8f325badf.fbx"
    },
    {
      "children": [
        3
      ],
      "name": "Object_2"
    },
    {
      "children": [
        4
      ],
      "name": "RootNode"
    },
    {
      "children": [
        5
      ],
      "name": "sphere body",
      "rotation": [
        -0.7071068286895752,
        0,
        0,
        0.7071067094802856
      ],
      "scale": [
        100,
        100,
        100
      ],
      "translation": [
        0,
        0.003687500022351742,
        0
      ]
    },
    {
      "mesh": 0,
      "name": "sphere body_sphere_color_0"
    }
  ],
  "samplers": [
    {
      "magFilter": 9729,
      "minFilter": 9987,
      "wrapS": 10497,
      "wrapT": 10497
    }
  ],
  "scene": 0,
  "scenes": [
    {
      "name": "Sketchfab_Scene",
      "nodes": [
        0
      ]
    }
  ],
  "textures": [
    {
      "sampler": 0,
      "source": 0
    },
    {
      "sampler": 0,
      "source": 1
    },
    {
      "sampler": 0,
      "source": 2
    }
  ]
}
